<svg xmlns="http://www.w3.org/2000/svg" viewBox="0 0 229.02 220.44">
  <defs>
    <style>
      .a {
        fill: #010101;
      }
    </style>
  </defs>
  <g>
    <path d="M142.88,197.78l-4.94,8.53C104.2,147.89,70.66,89.83,37,31.48H238.88l-5,8.72h-182Z" transform="translate(-26.94 -31.48)"/>
    <path d="M87.44,60.88H221.92L216.67,70h-113l56.52,97.91-5.46,9.46C132.17,138.33,109.9,99.76,87.44,60.88Z" transform="translate(-26.94 -31.48)"/>
    <path d="M172,147.39,139.11,90.55h65.68l-5.3,9.18H155.17l10.19,17.65h14.16l5.36,9.27h-14c2.12,4.24,4.47,7.78,6.43,11.5Z" transform="translate(-26.94 -31.48)"/>
    <g>
      <path class="a" d="M37.86,251.92A11.36,11.36,0,0,1,32,250.49a9.35,9.35,0,0,1-3.77-4.09,14.14,14.14,0,0,1-1.31-6.31,13.87,13.87,0,0,1,1.31-6.27A9.38,9.38,0,0,1,32,229.76a11.46,11.46,0,0,1,5.84-1.43,13.14,13.14,0,0,1,4.35.71,9.43,9.43,0,0,1,3.46,2.11l-1.17,2.5a11.66,11.66,0,0,0-3.19-1.93,9.53,9.53,0,0,0-3.42-.6,6.88,6.88,0,0,0-5.54,2.31q-2,2.32-2,6.66t2,6.69a6.83,6.83,0,0,0,5.56,2.35,9.53,9.53,0,0,0,3.42-.6,11.61,11.61,0,0,0,3.19-1.92l1.17,2.49a9.43,9.43,0,0,1-3.46,2.11A13.14,13.14,0,0,1,37.86,251.92Z" transform="translate(-26.94 -31.48)"/>
      <path class="a" d="M59.37,251.92a10.87,10.87,0,0,1-5.7-1.43,9.47,9.47,0,0,1-3.7-4.08,16,16,0,0,1,0-12.59,9.47,9.47,0,0,1,3.7-4.06,12.12,12.12,0,0,1,11.42,0,9.37,9.37,0,0,1,3.71,4.06,15.78,15.78,0,0,1,0,12.59,9.49,9.49,0,0,1-3.71,4.08A10.84,10.84,0,0,1,59.37,251.92Zm0-2.72a6.6,6.6,0,0,0,5.38-2.35c1.3-1.57,1.94-3.82,1.94-6.76s-.64-5.18-1.94-6.72a6.67,6.67,0,0,0-5.38-2.32A6.62,6.62,0,0,0,54,233.39c-1.29,1.55-1.94,3.79-1.94,6.7s.65,5.17,1.94,6.74A6.58,6.58,0,0,0,59.37,249.2Z" transform="translate(-26.94 -31.48)"/>
      <path class="a" d="M74.7,251.66V228.59h8.1a13.88,13.88,0,0,1,6.35,1.34,9.2,9.2,0,0,1,4,3.93,14.79,14.79,0,0,1,0,12.5,9.38,9.38,0,0,1-4,3.94,13.56,13.56,0,0,1-6.32,1.36ZM78,248.87h4.53q4.25,0,6.39-2.2t2.13-6.58q0-8.72-8.52-8.71H78Z" transform="translate(-26.94 -31.48)"/>
      <path class="a" d="M99.1,251.66V228.59h15v2.69H102.4v7.29h11v2.72h-11V249h11.67v2.69Z" transform="translate(-26.94 -31.48)"/>
      <path class="a" d="M137,251.92a11.33,11.33,0,0,1-5.83-1.43,9.43,9.43,0,0,1-3.78-4.09,14.28,14.28,0,0,1-1.31-6.31,14,14,0,0,1,1.31-6.27,9.46,9.46,0,0,1,3.78-4.06,11.42,11.42,0,0,1,5.83-1.43,13.16,13.16,0,0,1,4.36.71,9.31,9.31,0,0,1,3.45,2.11l-1.17,2.5a11.52,11.52,0,0,0-3.19-1.93,9.53,9.53,0,0,0-3.42-.6,6.91,6.91,0,0,0-5.54,2.31c-1.32,1.55-2,3.77-2,6.66s.65,5.13,2,6.69a6.81,6.81,0,0,0,5.55,2.35,9.53,9.53,0,0,0,3.42-.6,11.47,11.47,0,0,0,3.19-1.92l1.17,2.49a9.31,9.31,0,0,1-3.45,2.11A13.16,13.16,0,0,1,137,251.92Z" transform="translate(-26.94 -31.48)"/>
      <path class="a" d="M149.61,251.66h-3.4l10.27-23.07h2.82l10.27,23.07H166.2l-8.78-20.54h1Zm1-5.7,1.23-2.66h12L165,246Z" transform="translate(-26.94 -31.48)"/>
      <path class="a" d="M172.59,251.66V228.59h2.52l14.07,18.53-.81.33V228.59h3.14v23.07H189l-14-18.5.78-.36v18.86Z" transform="translate(-26.94 -31.48)"/>
      <path class="a" d="M205.54,251.66V228.59h14.65v2.75H208.85v7.23h10.69v2.76H208.85v10.33Z" transform="translate(-26.94 -31.48)"/>
      <path class="a" d="M223.91,251.66V228.59h3.34v20.28h11.21v2.79Z" transform="translate(-26.94 -31.48)"/>
      <path class="a" d="M243.39,251.66V241.29l.74,2.17-9.91-14.87h3.85l7.55,11.73h-1l7.55-11.73H256l-9.88,14.87.68-2.17v10.37Z" transform="translate(-26.94 -31.48)"/>
    </g>
  </g>
</svg>
