<svg xmlns="http://www.w3.org/2000/svg" viewBox="0 0 439.63 106.33">
  <defs>
    <style>
      .a {
        fill: #010101;
      }
    </style>
  </defs>
  <g>
    <path d="M127.86,119.24l-3,5.19L63.44,18.1H186.25l-3.05,5.3H72.53C91.05,55.49,109.43,87.31,127.86,119.24Z" transform="translate(-63.44 -18.1)"/>
    <path d="M94.14,36h81.79l-3.19,5.52H104c11.54,20,22.94,39.75,34.38,59.55-1.06,1.84-2.12,3.66-3.32,5.76Z" transform="translate(-63.44 -18.1)"/>
    <path d="M145.54,88.6c-6.73-11.65-13.3-23-20-34.58h39.94l-3.22,5.59h-27l6.2,10.73h8.61L153.4,76h-8.51c1.29,2.58,2.72,4.73,3.92,7Z" transform="translate(-63.44 -18.1)"/>
    <g>
      <path class="a" d="M239.11,83.66a13.59,13.59,0,0,1-7-1.73,11.49,11.49,0,0,1-4.55-5,17.06,17.06,0,0,1-1.6-7.68,16.87,16.87,0,0,1,1.6-7.65,11.56,11.56,0,0,1,4.55-4.93,13.68,13.68,0,0,1,7-1.73,15.55,15.55,0,0,1,5.3.88,11.77,11.77,0,0,1,4.24,2.63l-1.34,2.76a13.39,13.39,0,0,0-3.93-2.43,12.12,12.12,0,0,0-4.23-.73,8.64,8.64,0,0,0-7,2.9q-2.46,2.9-2.46,8.3c0,3.62.81,6.41,2.44,8.35a8.58,8.58,0,0,0,7,2.92,11.9,11.9,0,0,0,4.23-.73,13.34,13.34,0,0,0,3.93-2.42l1.34,2.75a11.77,11.77,0,0,1-4.24,2.63A15.55,15.55,0,0,1,239.11,83.66Z" transform="translate(-63.44 -18.1)"/>
      <path class="a" d="M265.36,83.66a13.09,13.09,0,0,1-6.88-1.73A11.5,11.5,0,0,1,254,77a17.11,17.11,0,0,1-1.58-7.64A17.4,17.4,0,0,1,254,61.65a11.4,11.4,0,0,1,4.45-4.95,14.63,14.63,0,0,1,13.8,0,11.46,11.46,0,0,1,4.45,4.95,17.28,17.28,0,0,1,1.56,7.63A17.34,17.34,0,0,1,276.67,77a11.58,11.58,0,0,1-4.45,5A13,13,0,0,1,265.36,83.66Zm0-3a8.24,8.24,0,0,0,6.72-2.94q2.42-2.94,2.42-8.41t-2.42-8.38a9.26,9.26,0,0,0-13.48,0q-2.43,2.91-2.43,8.36t2.43,8.39A8.26,8.26,0,0,0,265.36,80.63Z" transform="translate(-63.44 -18.1)"/>
      <path class="a" d="M284,83.35V55.28h9.62a16.61,16.61,0,0,1,7.67,1.64,11.15,11.15,0,0,1,4.84,4.77,15.88,15.88,0,0,1,1.68,7.59,15.83,15.83,0,0,1-1.7,7.62,11.4,11.4,0,0,1-4.86,4.79,16.25,16.25,0,0,1-7.63,1.66Zm3.63-3.08h5.75q5.33,0,8-2.76c1.78-1.83,2.66-4.58,2.66-8.23q0-10.92-10.64-10.92h-5.75Z" transform="translate(-63.44 -18.1)"/>
      <path class="a" d="M313.52,83.35V55.28h17.94v3H317.11v9.3h13.56v3H317.11v9.73h14.35v3Z" transform="translate(-63.44 -18.1)"/>
      <path class="a" d="M359.32,83.66a13.57,13.57,0,0,1-7-1.73,11.49,11.49,0,0,1-4.55-5,17.06,17.06,0,0,1-1.6-7.68,16.87,16.87,0,0,1,1.6-7.65,11.56,11.56,0,0,1,4.55-4.93,13.67,13.67,0,0,1,7-1.73,15.61,15.61,0,0,1,5.31.88,11.64,11.64,0,0,1,4.23,2.63l-1.34,2.76a13.22,13.22,0,0,0-3.92-2.43,12.14,12.14,0,0,0-4.24-.73,8.63,8.63,0,0,0-6.95,2.9q-2.48,2.9-2.47,8.3c0,3.62.82,6.41,2.45,8.35a8.57,8.57,0,0,0,7,2.92,11.91,11.91,0,0,0,4.24-.73,13.18,13.18,0,0,0,3.92-2.42l1.34,2.75a11.64,11.64,0,0,1-4.23,2.63A15.61,15.61,0,0,1,359.32,83.66Z" transform="translate(-63.44 -18.1)"/>
      <path class="a" d="M374.42,83.35h-3.74l12.41-28.07h3.12l12.45,28.07H395L384.08,58h1.22ZM376,76.29l1.3-3H392l1.3,3Z" transform="translate(-63.44 -18.1)"/>
      <path class="a" d="M402.56,83.35V55.28h2.76l17.5,23.22-1,.28V55.28h3.47V83.35h-2.8L405.05,60.17l.9-.31V83.35Z" transform="translate(-63.44 -18.1)"/>
      <path class="a" d="M442.45,83.35V55.28H460v3H446v9.26H459.2v3H446V83.35Z" transform="translate(-63.44 -18.1)"/>
      <path class="a" d="M464.72,83.35V55.28h3.63v25h13.87v3.08Z" transform="translate(-63.44 -18.1)"/>
      <path class="a" d="M488.29,83.35V70.73l.79,2.49-11.9-17.94h4.25l9.31,14.47h-1.19l9.35-14.47h4.17L491.21,73.22l.75-2.49V83.35Z" transform="translate(-63.44 -18.1)"/>
    </g>
  </g>
</svg>
